# xmcd CD database file
#
# Track frame offsets:
#	150
#	15087
#	35392
#	56265
#	80670
#	99665
#	115687
#	128092
#	146205
#	165480
#	182790
#	207117
#	236212
#	248255
#	271207
#	289415
#	306322
#	328062
#
# Disc length: 4606 seconds
#
# Revision: 4
# Processed by: cddbd v1.4PL0 Copyright (c) Steve Scherf et al.
# Submitted via: CDex 1.50
#
DISCID=f611fc12
DTITLE=Joe Cocker - The Anthology (2)
DYEAR=1999
DGENRE=Rock
TTITLE0=Pardon Me Sir
TTITLE1=High Time We Went
TTITLE2=Black-Eyed Blues
TTITLE3=Something To Say
TTITLE4=Put Out The Light
TTITLE5=I Can Stand A Little Rain
TTITLE6=You Are So Beautiful
TTITLE7=I Think It's Gonna Rain Today
TTITLE8=Jamaica Say You Will
TTITLE9=The Jealous Kind
TTITLE10=Catfish
TTITLE11=A Song For You
TTITLE12=Fun Time
TTITLE13=I'm So Glad I'm Standing Here Today
TTITLE14=Sweet Little Woman
TTITLE15=Many Rivers To Cross
TTITLE16=Talking Back To The Night
TTITLE17=Up Where We Belong
EXTD=YEAR: 1999
EXTT0=
EXTT1=
EXTT2=
EXTT3=
EXTT4=
EXTT5=
EXTT6=
EXTT7=
EXTT8=
EXTT9=
EXTT10=
EXTT11=
EXTT12=
EXTT13=
EXTT14=
EXTT15=
EXTT16=
EXTT17=
PLAYORDER=
